<svg width="17" height="22" fill="none" xmlns="http://www.w3.org/2000/svg">
    <path d="M16.98 7.673c-.102-1.835-.666-3.992-1.808-5.024-.374-.339-.814-.518-1.245-.397-.431.12-.808.497-1.127.825-.574.592-1.228 1.062-1.736.962-.54-.106-.902-.774-1.39-1.546C8.57.746 7.44.749 6.69 1.17c-.748.42-1.114 1.259-1.356 2.536-.148.767-.296 1.4-.936 1.502-.617.098-1.324-.207-1.993-.475-.864-.348-1.285-.243-1.615.056-.33.299-.57.794-.696 1.517-.546 3.131 1.381 6.767 3.223 9.206.115.152.27.323.473.193.202-.13.086-.328.019-.491-.834-2.016-1.014-3.767-.567-3.824.285-.036.892.648 1.294 1.264.108.166.233.39.48.31.221-.074.204-.34.204-.523 0-.586.006-1.894.49-2.053.535-.174 1.284 1.518 1.674 2.323a31.652 31.652 0 0 0 6.378 8.94c.182.18.415.4.676.2.26-.198.114-.501-.02-.726-1.714-2.858-3.237-7.638-2.843-10.97.089-.74.252-1.31.631-1.316.417-.006.834.833 1.126 1.603.068.18.164.46.423.417.227-.037.27-.305.296-.483.088-.549.156-1.787.787-1.767.548.018.67 1.391.745 2.056.082.748.148 1.758.18 2.375.01.165.011.4.233.423.221.024.285-.192.333-.359.411-1.406.76-3.481.651-5.431zm-9.439-3.84c-.243.027-.489.037-.734.03a.133.133 0 0 1-.05-.007 4.767 4.767 0 0 1-.638-.33c-.08-.05-.08-.07 0-.087.24-.051.485-.084.73-.099a.093.093 0 0 1 .047.017c.24.12.47.257.69.41.061.038.048.052-.045.066zm1.563-.804a4.679 4.679 0 0 1-.487.519.123.123 0 0 1-.045.022c-.228.087-.462.159-.7.214-.091.021-.11.012-.065-.049.157-.216.329-.42.513-.613.021-.022.03-.028.04-.031.234-.068.472-.118.714-.148.084-.012.09.008.03.083v.003z" fill="#FFFFFF"></path>
</svg>
