<svg id="Layer_2" data-name="Layer 2" xmlns="http://www.w3.org/2000/svg" viewBox="0 0 987 704.5908"><title>techrangers-robot-vector</title><path d="M478.5,131.5908" style="fill:#000000"/><path d="M359,127.0908s0-90,14-89,36,31,44,41,24,23,44,24,60-41,70-69,20-35,29-34,38,26,48,47,23,54,23,68v28s27,3,49,1,78-12,78-12,8,15,8,22v19s-208-10-277-15-263-16-263-16-2-6,0-18a72.3107,72.3107,0,0,1,7-21s36,9,62,16S359,127.0908,359,127.0908Z" style="fill:#000000"/><path d="M949.5,265.0908a37.431,37.431,0,0,0-12.042,1.9873c-39.7225-26.2494-107.8367-71.366-109.958-73.4873-3-3,1-12,1-12s9-39,9-43-17-25-25-36-15-18-19-19-11,2-11,2-45,21-47,23c0,0-20.5,10.5-19.5,14.5s4,5,10,8,14.5,3.5,14.5,3.5,10.5-5.5,15.5-10.5,14-9,18-8,9,7,13,12,10,14,10,14,0,8-1,18-5,38-5,38-15,7-18,7-7-8-12-15-10-18-12-20-8,0-15,6-10,8-10,13,16,15,24,23,24,19,28,20,14-2,23-6,11-9,14-10,6,3,6,3l96.12,68.5211a37.5484,37.5484,0,0,0-1.8608,24.6268l-91.002,58.1956a34.5032,34.5032,0,0,0-48.4477,16.5106c-21.2941-.2775-62.8093-.8541-62.8093-.8541l-7-186s-141-11-217-14-213,6-213,6v100c0,59-5,100-5,100L200.5239,388.83A28.9391,28.9391,0,0,0,178,378.0908c-.7835,0-1.5573.04-2.3251.1011L59.9035,255.2961a30.8427,30.8427,0,0,0,2.0525-9.5616L154,188.0908s7,4,12,7,25,12,29,12,21-12,33-22,22-25,23-30-4-5-4-5-13-10-17.3333-7.1667S222,150.0908,216,159.0908s-13,19-16,19-14-5-16-8-3-16-5-30,1-35,2-38,7-6,12-9,11-2,16-1,19,9,24,11,10-1,16-5a24.04,24.04,0,0,0,9-10c1-2-2-4-8-8s-13-6-27-12-36-12-41-12-12,11-18,17-22,24-23,28-1,9,0,19,5,35,5,35L46.329,217.15A30.9985,30.9985,0,1,0,31,275.0908a31.2467,31.2467,0,0,0,3.9543-.26L149.4324,402.1239a28.9714,28.9714,0,0,0,19.3827,32.4732L183.5,704.5908h602l24.7065-269.8279a34.5275,34.5275,0,0,0,28.682-25.4607l108.2681-69.2916c.7758.0478,1.5556.08,2.3434.08a37.5,37.5,0,0,0,0-75Z" style="fill:#000000"/><circle cx="214.8" cy="428.0908" r="7" style="fill:#fff"/><circle cx="214.8" cy="475.0908" r="7" style="fill:#fff"/><circle cx="214.8" cy="523.0908" r="7" style="fill:#fff"/><circle cx="214.8" cy="569.0908" r="7" style="fill:#fff"/><circle cx="214.8" cy="615.0908" r="7" style="fill:#fff"/><circle cx="758.8" cy="422.0908" r="7" style="fill:#fff"/><circle cx="758.8" cy="475.0908" r="7" style="fill:#fff"/><circle cx="758.8" cy="525.0908" r="7" style="fill:#fff"/><circle cx="758.8" cy="575.0908" r="7" style="fill:#fff"/><circle cx="758.8" cy="626.0908" r="7" style="fill:#fff"/><circle cx="260.8164" cy="432.5015" r="7" style="fill:#fff"/><circle cx="310.8127" cy="433.8964" r="7" style="fill:#fff"/><circle cx="360.8091" cy="436.2913" r="7" style="fill:#fff"/><circle cx="410.8054" cy="436.6863" r="7" style="fill:#fff"/><circle cx="460.8018" cy="437.0812" r="7" style="fill:#fff"/><circle cx="510.7981" cy="435.4762" r="7" style="fill:#fff"/><circle cx="560.7944" cy="433.8711" r="7" style="fill:#fff"/><circle cx="610.7908" cy="433.266" r="7" style="fill:#fff"/><circle cx="660.7871" cy="428.661" r="7" style="fill:#fff"/><circle cx="708.7836" cy="428.0801" r="7" style="fill:#fff"/><circle cx="613.5" cy="499.5908" r="11" style="fill:#fff"/><circle cx="670.5" cy="462.5908" r="11" style="fill:#fff"/><circle cx="724.5" cy="502.5908" r="11" style="fill:#fff"/><circle cx="701.5" cy="567.5908" r="11" style="fill:#fff"/><circle cx="631.8274" cy="566.4601" r="11" style="fill:#fff"/><polygon points="701.724 568.924 667.671 542.301 631.827 566.46 646.625 525.846 612.572 499.223 655.77 500.746 670.568 460.132 682.468 501.687 725.667 503.21 689.823 527.369 701.724 568.924" style="fill:#fff"/><path d="M300.5,275.5908s96,4,177,5,195,2,195,2,4,28,5,47,4,50,4,50l-380,2Z" style="fill:#fff"/><circle cx="616.5" cy="241.5908" r="25.5" style="fill:#fff"/><circle cx="371.5" cy="237.5908" r="25.5" style="fill:#fff"/><circle cx="215.8" cy="665.0908" r="7" style="fill:#fff"/><circle cx="756.8" cy="677.0908" r="7" style="fill:#fff"/><polygon points="490.401 366.845 462.575 300.261 418.782 364.423 410.82 311.671 391.11 342.643 374.759 320.16 358.895 336.024 321.162 339.084 320.838 335.098 357.105 332.157 375.241 314.021 390.89 335.539 413.18 300.511 421.218 353.759 463.425 291.92 491.599 359.337 510.785 337.122 517.855 358.333 548.439 326.763 558.541 344.946 574.234 331.1 574.978 331.091 664.978 330.091 665.022 334.091 575.766 335.082 557.459 351.235 547.561 333.419 516.145 365.849 509.215 345.06 490.401 366.845"/></svg>
